<svg xmlns="http://www.w3.org/2000/svg" version="1.1" xmlns:xlink="http://www.w3.org/1999/xlink" width="512" height="512" x="0" y="0" viewBox="0 0 512 512" style="enable-background:new 0 0 512 512" xml:space="preserve" class=""><g><path fill="#49b1f7" d="M462.125 399.476c24.6-38.196 38.877-83.669 38.877-132.478 0-135.311-109.691-245.002-245.002-245.002S10.998 131.687 10.998 266.998c0 48.809 14.277 94.282 38.877 132.478z" opacity="1" data-original="#49b1f7" class=""></path><path fill="#becaf5" d="M168.924 58.288c0 18.365-14.888 33.253-33.253 33.253h326.454V58.288z" opacity="1" data-original="#becaf5" class=""></path><path fill="#3c58a0" d="M49.875 58.288v33.253h87.878c18.365 0 33.253-14.888 33.253-33.253z" opacity="1" data-original="#3c58a0"></path><path fill="#deeeff" d="m146.981 89.459.637.521c-1.435 4.875-6.732 26.146 3.385 45.667 6.849 13.214 19.286 22.653 36.972 28.064l5.109 13.883-11.546 37.454 41.536 235.787c-1.948 2.135-8.61 9.977-12.252 21.033-3.121 9.477-4.35 22.765 4.239 36.72A246.693 246.693 0 0 0 256 512c86.501 0 162.528-44.832 206.125-112.524V89.459z" opacity="1" data-original="#deeeff" class=""></path><path fill="#d3dcfb" d="M49.875 89.459v310.017c36.91 57.31 97.066 98.229 167.142 109.435-19.566-29.876 7.663-57.598 7.663-57.598l-41.603-236.17 11.589-37.593-5.543-15.06c-58.542-17.407-39.773-73.031-39.773-73.031z" opacity="1" data-original="#d3dcfb"></path><path fill="#2a428c" d="M425.809 0H163.04s-9.766 10.197 0 19.963l1.333 19.4s-8.308 12.566 4.551 20.861h293.201V36.316C462.125 16.342 445.783 0 425.809 0z" opacity="1" data-original="#2a428c" class=""></path><path fill="#1c2e7a" d="M86.191 0C66.217 0 49.875 16.342 49.875 36.316v23.909h121.131c-12.858-8.295-4.551-20.861-4.551-20.861l-1.332-19.4c-9.766-9.766 0-19.963 0-19.963H86.191z" opacity="1" data-original="#1c2e7a" class=""></path><path fill="#ff4155" d="M106.272 30.112c0 6.465-5.241 11.707-11.707 11.707-6.465 0-11.707-5.241-11.707-11.707 0-6.465 5.241-11.707 11.707-11.707 6.466.001 11.707 5.242 11.707 11.707z" opacity="1" data-original="#ff4155"></path><path fill="#ffdd40" d="M138.639 30.112c0 6.465-5.241 11.707-11.707 11.707-6.465 0-11.707-5.241-11.707-11.707 0-6.465 5.241-11.707 11.707-11.707 6.466.001 11.707 5.242 11.707 11.707z" opacity="1" data-original="#ffdd40"></path><path fill="#88ce65" d="M171.006 30.112c0 6.465-5.241 11.707-11.707 11.707-6.465 0-11.707-5.241-11.707-11.707 0-6.465 5.241-11.707 11.707-11.707 6.466.001 11.707 5.242 11.707 11.707z" opacity="1" data-original="#88ce65"></path><path fill="#3c58a0" d="M271.305 30.112a7.809 7.809 0 0 1 7.809-7.809h-69.665a7.809 7.809 0 1 0 0 15.618h69.665a7.807 7.807 0 0 1-7.809-7.809z" opacity="1" data-original="#3c58a0"></path><path fill="#6289cc" d="M335.763 30.112a7.809 7.809 0 0 0-7.809-7.809h-50.923a7.809 7.809 0 1 0 0 15.618h50.923a7.807 7.807 0 0 0 7.809-7.809zM422.332 37.922h-10.179a7.809 7.809 0 1 1 0-15.618h10.179a7.809 7.809 0 1 1 0 15.618z" opacity="1" data-original="#6289cc" class=""></path><path fill="#3c58a0" d="M386.945 37.922h-10.179a7.809 7.809 0 1 1 0-15.618h10.179a7.809 7.809 0 1 1 0 15.618z" opacity="1" data-original="#3c58a0"></path><path fill="#2a428c" d="M316.217 451.312V365.73H254.53c-20.217 0-36.605 16.389-36.605 36.605v48.977z" opacity="1" data-original="#2a428c" class=""></path><path fill="#1c2e7a" d="M220.806 435.421v-31.714c0-19.145 15.664-34.81 34.81-34.81h60.602v-38.866H195.783v121.281h28.898a34.47 34.47 0 0 1-3.875-15.891zM158.299 330.031h-19.44c-18.215 0-33.117-14.903-33.117-33.117v121.281c0 18.215 14.903 33.117 33.117 33.117h19.44z" opacity="1" data-original="#1c2e7a" class=""></path><path fill="#2a428c" d="M353.701 365.73v85.582h19.441c18.215 0 33.117-14.903 33.117-33.117V365.73z" opacity="1" data-original="#2a428c" class=""></path><path fill="#1c2e7a" d="M406.259 368.897v-71.983c0 18.214-14.903 33.117-33.117 33.117h-19.441v38.866z" opacity="1" data-original="#1c2e7a" class=""></path><path fill="#2a428c" d="M156.737 330.031h40.608v121.281h-40.608z" opacity="1" data-original="#2a428c" class=""></path><path fill="#3c58a0" d="M314.655 365.73h40.608v85.582h-40.608z" opacity="1" data-original="#3c58a0"></path><path fill="#2a428c" d="M314.655 330.031h40.608v38.866h-40.608z" opacity="1" data-original="#2a428c" class=""></path><path fill="#6289cc" d="M373.142 212.915H242.256c-14.022 4.153-24.331 17.177-24.331 32.5v54.2c0 15.322 10.309 28.346 24.331 32.5h130.886c18.215 0 33.117-14.903 33.117-33.117v-52.965c0-18.215-14.903-33.118-33.117-33.118z" opacity="1" data-original="#6289cc" class=""></path><path fill="#3c58a0" d="M218.697 298.997v-52.965c0-18.214 14.903-33.117 33.117-33.117H138.858c-18.215 0-33.117 14.903-33.117 33.117v52.965c0 18.214 14.903 33.117 33.117 33.117h112.956c-18.214 0-33.117-14.903-33.117-33.117z" opacity="1" data-original="#3c58a0"></path><path fill="#ffdd40" d="M264.46 309.009h-16.92c-6.541 0-11.844 5.303-11.844 11.844v20.438c0 6.541 5.303 11.844 11.844 11.844h16.92c6.541 0 11.844-5.303 11.844-11.844v-20.438c0-6.541-5.303-11.844-11.844-11.844z" opacity="1" data-original="#ffdd40"></path><path fill="#becaf5" d="M171.702 217.079c-5.751 0-10.412-4.662-10.412-10.412s4.662-10.412 10.412-10.412c7.537 0 13.669-6.131 13.669-13.668v-2.832c0-23.012 18.722-41.733 41.733-41.733 5.751 0 10.412 4.662 10.412 10.412s-4.662 10.412-10.412 10.412c-11.529 0-20.909 9.38-20.909 20.909v2.832c0 19.019-15.474 34.492-34.493 34.492zM340.298 217.079c-19.02 0-34.493-15.473-34.493-34.493v-2.833c0-11.529-9.38-20.908-20.908-20.908-5.751 0-10.412-4.662-10.412-10.412s4.661-10.412 10.412-10.412c23.012 0 41.733 18.721 41.733 41.732v2.833c0 7.537 6.132 13.668 13.669 13.668 5.751 0 10.412 4.662 10.412 10.412-.001 5.751-4.663 10.413-10.413 10.413z" opacity="1" data-original="#becaf5" class=""></path><path fill="#3c58a0" d="M284.896 134.377H263.44c-5.801 2.043-9.966 7.557-9.966 14.057s4.165 12.013 9.966 14.056h21.456c7.763 0 14.056-6.293 14.056-14.056.001-7.764-6.292-14.057-14.056-14.057z" opacity="1" data-original="#3c58a0"></path><path fill="#2a428c" d="M254.333 148.434c0-7.764 6.293-14.057 14.056-14.057h-41.286c-7.763 0-14.057 6.293-14.057 14.057 0 7.763 6.293 14.056 14.057 14.056h41.286c-7.763 0-14.056-6.293-14.056-14.056z" opacity="1" data-original="#2a428c" class=""></path></g></svg>