<svg width="147" height="151" viewBox="0 0 147 151" fill="none" xmlns="http://www.w3.org/2000/svg">
<rect x="23" y="32" width="99" height="94" fill="white"/>
<path d="M40.0156 51.4879C40.9288 52.183 43.9728 52.9021 48.9134 53.789C55.2355 54.9396 63.6883 55.4669 72.2348 55.4669C80.7813 55.4669 89.2342 54.7958 95.5563 53.789C100.473 52.9021 103.588 52.1351 104.454 51.4879C104.758 51.2482 104.805 50.8886 104.477 50.6729C103.049 49.762 91.365 46.5021 72.2348 46.5021C53.1047 46.5021 42.9425 49.3306 39.9922 50.6729C39.641 50.8167 39.7113 51.2482 40.0156 51.4879Z" fill="#4CD79D"/>
<path d="M105.462 0H41.5384C18.5916 0 0 19.0324 0 42.5233V107.938C0 131.429 18.5916 150.461 41.5384 150.461H105.438C128.385 150.461 146.977 131.429 146.977 107.938V42.5233C147 19.0324 128.408 0 105.462 0ZM46.8536 45.1121C53.6674 43.7697 62.7291 43.0986 72.2356 43.0986C81.7421 43.0986 90.8038 43.7697 97.6176 45.1121C105.86 46.79 109.489 48.4679 109.653 51.4882C109.653 54.6762 106 56.6897 97.6176 58.1998C90.8038 59.3744 81.7421 60.0455 72.2356 60.0455C62.7291 60.0455 53.6674 59.3744 46.8536 58.1998C38.4476 56.6897 34.8183 54.6762 34.8183 51.4882C34.9822 48.4439 38.6349 46.766 46.8536 45.1121ZM115.858 106.476C115.858 106.979 115.46 107.387 114.968 107.387H96.5639C96.0722 107.387 95.6741 106.979 95.6741 106.476V97.4152C95.6741 96.816 95.2526 96.2886 94.6673 96.1688L74.46 92.3815C72.9615 92.0938 71.5097 91.5904 70.1516 90.8953L31.1421 70.3288C31.1421 67.0449 34.186 64.6718 37.2768 65.5347L69.9643 76.3453C69.9643 78.263 71.1351 79.9649 72.9146 80.5881L87.432 84.7589C87.7364 84.8548 88.0408 84.6151 88.0408 84.2795V83.6083C88.0408 82.7694 87.5022 82.0503 86.7061 81.8345L75.8649 78.9581C74.1088 78.3349 72.9146 76.633 72.9146 74.7154C72.9146 72.1505 75.1391 70.161 77.6211 70.4966L89.633 71.6472C93.8243 72.0547 97.922 73.1813 101.622 75.2187C112.392 81.0675 115.835 90.8713 115.835 103.863V106.476H115.858Z" fill="#4CD79D"/>
</svg>
