<svg width="512" height="512" viewBox="0 0 512 512" fill="none" xmlns="http://www.w3.org/2000/svg">
<rect width="512" height="512" rx="30" fill="#1E1D61"/>
<rect x="192.278" y="194.201" width="131.461" height="131.461" rx="10" fill="#170D41"/>
<path fill-rule="evenodd" clip-rule="evenodd" d="M228.728 240.371C226.355 240.371 224.434 238.356 224.802 235.975C227.099 221.511 237.926 210.968 256.714 210.968C275.511 210.968 288.185 222.532 288.185 238.305C288.185 249.733 282.629 257.76 273.231 263.585C264.041 269.188 261.418 273.091 261.418 280.676V280.931C261.418 282.058 260.978 283.14 260.194 283.937C259.411 284.734 258.349 285.182 257.241 285.182H250.808C249.707 285.182 248.651 284.74 247.869 283.952C247.087 283.164 246.642 282.093 246.631 280.973L246.606 279.273C246.247 268.89 250.591 262.258 260.349 256.212C268.953 250.838 272.019 246.561 272.019 238.968C272.019 230.644 265.687 224.53 255.929 224.53C247.5 224.53 241.644 229.028 239.739 236.451C239.187 238.611 237.416 240.371 235.228 240.371H228.728ZM253.966 313.004C259.162 313.004 263.114 308.974 263.114 303.736C263.114 298.481 259.162 294.451 253.966 294.451C248.903 294.451 244.885 298.481 244.885 303.727C244.885 308.974 248.903 313.004 253.966 313.004Z" fill="white"/>
<rect x="42.1647" y="194.201" width="131.461" height="131.461" rx="10" fill="#170D41"/>
<path d="M140.185 219.357C140.531 219.621 140.898 219.906 141.244 220.191C141.59 220.476 141.936 220.761 142.282 221.066C142.994 221.636 143.665 222.267 144.337 222.898C144.683 223.203 145.009 223.549 145.334 223.854C145.66 224.18 145.985 224.505 146.331 224.851C147.003 225.564 147.674 226.317 148.285 227.07C150.768 230.102 152.823 233.419 154.553 236.919C156.283 240.42 157.646 244.103 158.684 247.929C159.702 251.755 160.394 255.723 160.618 259.753C160.841 263.782 160.658 267.914 159.885 271.963C159.132 276.013 157.83 280.002 155.937 283.685C154.065 287.369 151.663 290.747 148.936 293.637C147.573 295.082 146.128 296.425 144.642 297.666C144.276 297.972 143.889 298.277 143.523 298.562C143.136 298.847 142.77 299.132 142.383 299.437C141.569 300.027 140.735 300.597 139.921 301.106C137.926 302.347 135.871 303.385 133.755 304.28C131.638 305.176 129.481 305.888 127.303 306.499C125.106 307.089 122.887 307.557 120.649 307.882C118.41 308.208 116.151 308.412 113.872 308.493C109.334 308.635 104.734 308.289 100.196 307.414C95.658 306.539 91.2012 305.155 86.9275 303.202C82.6742 301.268 78.6244 298.786 74.9613 295.855C71.2981 292.925 68.0216 289.546 65.2336 285.883C63.8294 284.052 62.5269 282.159 61.367 280.205C60.1866 278.252 59.1284 276.257 58.1719 274.243C57.948 273.734 57.7038 273.225 57.48 272.716C57.2358 272.208 57.0526 271.699 56.8287 271.19L56.5031 270.417L56.1979 269.643L55.8926 268.87L55.7501 268.483L55.6687 268.28L55.5873 268.056C54.7123 265.655 54.1628 263.294 53.7761 260.994C54.0814 260.954 54.5902 261.646 55.0175 261.951C55.4449 262.256 55.7298 262.195 55.6077 260.689C55.4856 259.203 55.4449 257.901 55.4856 256.782C55.5059 256.232 55.5263 255.703 55.567 255.235C55.6077 254.767 55.6484 254.319 55.7094 253.912C55.8112 253.098 55.9537 252.447 56.0758 251.877C56.2182 251.328 56.381 250.88 56.5235 250.534C56.8287 249.842 57.134 249.516 57.4596 249.354C57.7649 249.191 58.0701 249.211 58.3957 249.232C58.5585 249.232 58.5993 249.74 58.6196 250.473C58.64 250.839 58.64 251.246 58.64 251.674C58.64 252.101 58.6603 252.549 58.6603 252.976C58.6603 253.403 58.6807 253.81 58.701 254.136C58.7214 254.482 58.7417 254.767 58.7621 254.95C58.8231 255.337 58.9045 255.316 59.0266 254.645C59.1284 256.66 59.3929 259.02 59.8813 261.279C60.1256 262.399 60.4308 263.497 60.7564 264.515C60.8378 264.78 60.9192 265.024 61.021 265.248C61.1024 265.492 61.2041 265.716 61.2856 265.96C61.4687 266.408 61.6519 266.815 61.8147 267.201C62.1403 267.975 62.4659 268.605 62.7101 269.074C62.9543 269.542 63.1375 269.847 63.2596 269.949C63.4631 270.132 63.3206 269.46 62.7101 267.568C62.6694 267.222 62.5473 266.794 62.4048 266.265C62.3641 266.143 62.3234 266.001 62.2827 265.858C62.242 265.716 62.2013 265.573 62.1606 265.41C62.0792 265.105 61.9775 264.78 61.8757 264.434C61.5094 263.07 61.1227 261.462 60.8785 259.814C60.614 258.186 60.4919 256.537 60.4919 255.133C60.5122 254.441 60.5122 253.79 60.5733 253.261C60.6343 252.712 60.7157 252.264 60.8378 251.938C61.0617 251.287 61.3059 251.124 61.5298 251.206C61.7536 251.287 61.9775 251.613 62.2217 251.918C62.6898 252.549 63.1578 253.159 63.6055 251.918C63.6055 250.676 63.6462 248.825 63.8294 246.952C63.9922 245.1 64.2568 243.248 64.4603 242.007C64.7045 241.417 64.9487 241.315 65.1318 241.417C65.315 241.539 65.4575 241.865 65.5999 242.211C65.8848 242.882 66.0883 243.513 66.2918 242.333C67.2076 238.832 68.3269 234.762 70.0567 230.733C70.9115 228.718 71.929 226.744 73.1297 224.912C74.3304 223.081 75.7346 221.453 77.2609 220.171C77.4644 220.415 78.1563 220.232 78.3395 220.435C78.4209 220.537 78.3802 220.741 78.0749 221.127C77.8918 221.453 77.5051 221.88 76.8946 222.633C76.1823 223.406 75.47 224.241 74.8188 225.197C74.4932 225.645 74.1879 226.154 73.8623 226.642C73.6995 226.886 73.5774 227.151 73.4146 227.416C73.2721 227.68 73.1093 227.924 72.9872 228.189C71.8679 230.305 70.9115 232.605 70.1381 235.006C69.3648 237.408 68.7746 239.891 68.3473 242.414C67.9199 244.938 67.6757 247.502 67.5943 250.046C67.5129 252.589 67.6553 255.093 67.9809 257.494L68.1234 258.389C68.1438 258.532 68.1641 258.695 68.2048 258.837L68.2862 259.264C68.3473 259.549 68.388 259.834 68.4694 260.119L68.6729 260.954C68.7339 261.239 68.8357 261.483 68.8967 261.768C68.9781 262.032 69.0595 262.297 69.1409 262.561L69.4055 263.335L69.7718 264.23C70.7283 266.631 71.8272 268.951 73.089 271.149C74.3507 273.347 75.7549 275.443 77.3016 277.397C80.4356 281.284 84.1394 284.642 88.352 287.226C92.5443 289.811 97.225 291.683 102.109 292.762C106.993 293.84 112.081 294.146 117.067 293.698C119.55 293.454 122.012 293.047 124.393 292.416C126.754 291.785 129.033 290.971 131.109 289.953C132.147 289.445 133.124 288.895 133.999 288.285C134.426 288 134.915 287.633 135.383 287.287C135.851 286.921 136.319 286.575 136.746 286.189C138.537 284.683 140.084 283.014 141.406 281.182C144.052 277.539 145.741 273.266 146.433 268.626C146.779 266.306 146.901 263.925 146.799 261.503C146.698 259.081 146.352 256.639 145.843 254.217C144.805 249.374 142.994 244.592 140.572 240.338C139.351 238.222 137.988 236.248 136.522 234.579L136.237 234.274L136.095 234.111L135.932 233.948L135.301 233.277C134.874 232.829 134.426 232.401 133.999 231.974C133.775 231.75 133.551 231.547 133.327 231.343L132.635 230.733C132.167 230.326 131.699 229.939 131.231 229.552C127.385 226.459 122.989 223.936 118.288 221.941C113.567 219.947 108.52 218.482 103.351 217.464C98.1611 216.426 92.8292 215.836 87.477 215.592C85.0145 215.429 83.6307 215.307 83.0609 215.124C82.7556 215.042 82.6538 214.941 82.7556 214.839C82.837 214.737 83.1016 214.615 83.4882 214.513C85.0349 214.045 88.7998 213.577 92.5647 213.414C91.2419 213.435 90.6313 213.251 90.0208 213.068C89.7155 212.967 89.4103 212.885 89.0033 212.824C88.6166 212.763 88.1485 212.743 87.5177 212.804C87.538 212.336 88.8201 211.745 91.3843 211.379C92.0355 211.298 92.7478 211.196 93.5618 211.155C93.9689 211.135 94.3962 211.115 94.8236 211.094C95.2713 211.074 95.719 211.074 96.2074 211.074C98.1408 211.074 100.379 211.216 102.923 211.583C100.4 211.135 97.8559 210.809 95.312 210.545C94.0503 210.26 94.0706 210.036 94.4166 209.792C94.7625 209.548 95.4341 209.303 95.4748 208.998C96.126 209.059 96.7773 209.141 97.3674 209.202C97.978 209.283 98.5478 209.344 99.0158 209.385C99.9927 209.487 100.644 209.507 100.664 209.344C100.705 209.039 100.807 208.428 100.847 208.123C99.545 207.92 97.5913 207.675 95.6173 207.472C93.6432 207.268 91.6692 207.126 90.3668 207.065C92.992 207.207 95.6173 207.472 95.658 207.167C95.6987 206.861 95.7597 206.251 95.7801 205.946C98.446 206.047 101.763 206.576 105.06 207.268C106.708 207.614 108.336 208.021 109.883 208.388C110.656 208.591 111.409 208.774 112.142 208.957C112.854 209.141 113.567 209.303 114.218 209.466L114.482 208.571C113.831 208.347 113.139 208.123 112.427 207.899C111.694 207.675 110.941 207.492 110.168 207.268C108.601 206.882 106.932 206.515 105.264 206.23C101.926 205.64 98.5681 205.274 95.9022 205.009C97.2657 204.989 97.9576 204.908 98.3036 204.765C98.6699 204.623 98.6902 204.379 98.7309 204.073C102.801 204.419 106.851 205.294 110.819 206.353C112.814 206.882 114.788 207.472 116.782 208.042C118.776 208.632 120.771 209.242 122.786 209.812C120.201 208.754 117.555 207.838 114.91 207.065C115.276 207.065 115.663 207.106 116.07 207.146C116.477 207.187 116.925 207.248 117.393 207.35C117.861 207.451 118.329 207.553 118.837 207.675C119.346 207.818 119.855 207.96 120.384 208.123C122.521 208.795 124.902 209.771 127.283 210.972C129.664 212.173 132.065 213.577 134.263 215.042C136.441 216.528 138.456 218.034 140.185 219.357Z" fill="#A0B619"/>
<rect x="194.183" y="343.788" width="131.461" height="131.461" rx="10" fill="#170D41"/>
<path d="M291.861 372.412C292.207 372.676 292.574 372.961 292.92 373.246C293.266 373.531 293.612 373.816 293.958 374.121C294.67 374.691 295.341 375.322 296.013 375.953C296.359 376.258 296.685 376.604 297.01 376.909C297.336 377.235 297.661 377.56 298.007 377.906C298.679 378.619 299.351 379.372 299.961 380.125C302.444 383.157 304.499 386.474 306.229 389.974C307.959 393.475 309.322 397.158 310.36 400.984C311.378 404.81 312.07 408.778 312.294 412.808C312.517 416.837 312.334 420.968 311.561 425.018C310.808 429.068 309.506 433.057 307.613 436.74C305.741 440.424 303.339 443.802 300.612 446.692C299.249 448.137 297.804 449.48 296.318 450.721C295.952 451.027 295.565 451.332 295.199 451.617C294.812 451.902 294.446 452.187 294.059 452.492C293.245 453.082 292.411 453.652 291.597 454.161C289.603 455.402 287.547 456.44 285.431 457.335C283.314 458.231 281.157 458.943 278.979 459.554C276.782 460.144 274.563 460.612 272.325 460.937C270.086 461.263 267.827 461.466 265.548 461.548C261.01 461.69 256.41 461.344 251.872 460.469C247.334 459.594 242.877 458.21 238.604 456.257C234.35 454.323 230.3 451.841 226.637 448.91C222.974 445.98 219.698 442.601 216.91 438.938C215.505 437.107 214.203 435.214 213.043 433.26C211.863 431.307 210.804 429.312 209.848 427.298C209.624 426.789 209.38 426.28 209.156 425.771C208.912 425.262 208.729 424.754 208.505 424.245L208.179 423.472L207.874 422.698L207.569 421.925L207.426 421.538L207.345 421.335L207.263 421.111C206.388 418.71 205.839 416.349 205.452 414.049C205.757 414.009 206.266 414.7 206.694 415.006C207.121 415.311 207.406 415.25 207.284 413.744C207.162 412.258 207.121 410.956 207.162 409.837C207.182 409.287 207.202 408.758 207.243 408.29C207.284 407.822 207.324 407.374 207.385 406.967C207.487 406.153 207.63 405.502 207.752 404.932C207.894 404.383 208.057 403.935 208.199 403.589C208.505 402.897 208.81 402.571 209.136 402.409C209.441 402.246 209.746 402.266 210.072 402.286C210.235 402.286 210.275 402.795 210.296 403.528C210.316 403.894 210.316 404.301 210.316 404.729C210.316 405.156 210.336 405.604 210.336 406.031C210.336 406.458 210.357 406.865 210.377 407.191C210.397 407.537 210.418 407.822 210.438 408.005C210.499 408.392 210.581 408.371 210.703 407.7C210.804 409.715 211.069 412.075 211.557 414.334C211.802 415.453 212.107 416.552 212.432 417.57C212.514 417.834 212.595 418.079 212.697 418.303C212.778 418.547 212.88 418.771 212.962 419.015C213.145 419.463 213.328 419.87 213.491 420.256C213.816 421.03 214.142 421.66 214.386 422.128C214.63 422.597 214.813 422.902 214.936 423.004C215.139 423.187 214.997 422.515 214.386 420.623C214.345 420.277 214.223 419.849 214.081 419.32C214.04 419.198 213.999 419.056 213.959 418.913C213.918 418.771 213.877 418.628 213.837 418.465C213.755 418.16 213.654 417.834 213.552 417.489C213.185 416.125 212.799 414.517 212.555 412.869C212.29 411.241 212.168 409.592 212.168 408.188C212.188 407.496 212.188 406.845 212.249 406.316C212.31 405.766 212.392 405.319 212.514 404.993C212.738 404.342 212.982 404.179 213.206 404.261C213.43 404.342 213.654 404.668 213.898 404.973C214.366 405.604 214.834 406.214 215.282 404.973C215.282 403.731 215.322 401.879 215.505 400.007C215.668 398.155 215.933 396.303 216.136 395.062C216.381 394.472 216.625 394.37 216.808 394.472C216.991 394.594 217.133 394.92 217.276 395.265C217.561 395.937 217.764 396.568 217.968 395.388C218.884 391.887 220.003 387.817 221.733 383.788C222.587 381.773 223.605 379.799 224.806 377.967C226.006 376.136 227.411 374.508 228.937 373.226C229.14 373.47 229.832 373.287 230.016 373.49C230.097 373.592 230.056 373.795 229.751 374.182C229.568 374.508 229.181 374.935 228.571 375.688C227.858 376.461 227.146 377.296 226.495 378.252C226.169 378.7 225.864 379.209 225.538 379.697C225.376 379.941 225.253 380.206 225.091 380.47C224.948 380.735 224.785 380.979 224.663 381.244C223.544 383.36 222.587 385.66 221.814 388.061C221.041 390.463 220.451 392.945 220.023 395.469C219.596 397.992 219.352 400.557 219.27 403.101C219.189 405.644 219.331 408.148 219.657 410.549L219.799 411.444C219.82 411.587 219.84 411.75 219.881 411.892L219.962 412.319C220.023 412.604 220.064 412.889 220.145 413.174L220.349 414.009C220.41 414.293 220.512 414.538 220.573 414.823C220.654 415.087 220.736 415.352 220.817 415.616L221.082 416.39L221.448 417.285C222.404 419.686 223.503 422.006 224.765 424.204C226.027 426.402 227.431 428.498 228.978 430.452C232.112 434.339 235.815 437.697 240.028 440.281C244.22 442.866 248.901 444.738 253.785 445.817C258.669 446.895 263.757 447.201 268.743 446.753C271.226 446.509 273.688 446.102 276.069 445.471C278.43 444.84 280.709 444.026 282.785 443.008C283.823 442.5 284.8 441.95 285.675 441.34C286.102 441.055 286.591 440.688 287.059 440.342C287.527 439.976 287.995 439.63 288.422 439.243C290.213 437.738 291.76 436.069 293.082 434.237C295.728 430.594 297.417 426.321 298.109 421.681C298.455 419.361 298.577 416.98 298.475 414.558C298.374 412.136 298.028 409.694 297.519 407.272C296.481 402.429 294.67 397.647 292.248 393.393C291.027 391.277 289.664 389.303 288.198 387.634L287.913 387.329L287.771 387.166L287.608 387.003L286.977 386.332C286.55 385.884 286.102 385.456 285.675 385.029C285.451 384.805 285.227 384.602 285.003 384.398L284.311 383.788C283.843 383.381 283.375 382.994 282.907 382.607C279.061 379.514 274.665 376.991 269.964 374.996C265.243 373.002 260.196 371.537 255.027 370.519C249.837 369.481 244.505 368.891 239.153 368.647C236.691 368.484 235.307 368.362 234.737 368.179C234.432 368.097 234.33 367.995 234.432 367.894C234.513 367.792 234.778 367.67 235.164 367.568C236.711 367.1 240.476 366.632 244.241 366.469C242.918 366.49 242.307 366.306 241.697 366.123C241.392 366.021 241.086 365.94 240.679 365.879C240.293 365.818 239.825 365.798 239.194 365.859C239.214 365.391 240.496 364.8 243.06 364.434C243.712 364.353 244.424 364.251 245.238 364.21C245.645 364.19 246.072 364.17 246.5 364.149C246.947 364.129 247.395 364.129 247.883 364.129C249.817 364.129 252.055 364.271 254.599 364.638C252.076 364.19 249.532 363.864 246.988 363.6C245.726 363.315 245.747 363.091 246.093 362.847C246.439 362.603 247.11 362.358 247.151 362.053C247.802 362.114 248.453 362.196 249.043 362.257C249.654 362.338 250.224 362.399 250.692 362.44C251.669 362.541 252.32 362.562 252.34 362.399C252.381 362.094 252.483 361.483 252.523 361.178C251.221 360.974 249.267 360.73 247.293 360.527C245.319 360.323 243.345 360.181 242.043 360.12C244.668 360.262 247.293 360.527 247.334 360.221C247.375 359.916 247.436 359.306 247.456 359C250.122 359.102 253.439 359.631 256.736 360.323C258.384 360.669 260.013 361.076 261.559 361.443C262.333 361.646 263.085 361.829 263.818 362.012C264.53 362.196 265.243 362.358 265.894 362.521L266.158 361.626C265.507 361.402 264.815 361.178 264.103 360.954C263.37 360.73 262.617 360.547 261.844 360.323C260.277 359.937 258.608 359.57 256.94 359.285C253.602 358.695 250.244 358.329 247.578 358.064C248.942 358.044 249.634 357.963 249.98 357.82C250.346 357.678 250.366 357.433 250.407 357.128C254.477 357.474 258.527 358.349 262.495 359.407C264.49 359.937 266.464 360.527 268.458 361.097C270.452 361.687 272.447 362.297 274.462 362.867C271.877 361.809 269.231 360.893 266.586 360.12C266.952 360.12 267.339 360.16 267.746 360.201C268.153 360.242 268.601 360.303 269.069 360.405C269.537 360.506 270.005 360.608 270.514 360.73C271.022 360.873 271.531 361.015 272.06 361.178C274.197 361.85 276.578 362.826 278.959 364.027C281.34 365.228 283.741 366.632 285.939 368.097C288.117 369.583 290.132 371.089 291.861 372.412Z" fill="#A0B619"/>
<rect x="342.917" y="343.788" width="131.461" height="131.461" rx="10" fill="#170D41"/>
<path d="M427.984 384.414C427.876 384.289 427.769 384.163 427.662 384.039C427.291 384.428 426.921 384.817 426.551 385.206C426.664 385.31 426.776 385.414 426.89 385.517C427.254 385.15 427.62 384.781 427.984 384.414ZM427.184 380.097C427.298 380.252 427.412 380.406 427.527 380.561C427.866 380.196 428.206 379.828 428.546 379.463C428.457 379.375 428.369 379.287 428.281 379.2C427.916 379.498 427.55 379.798 427.184 380.097ZM435.199 374.657C435.288 374.758 435.378 374.859 435.467 374.961C435.817 374.64 436.168 374.32 436.517 374.001C436.436 373.916 436.355 373.831 436.275 373.746C435.916 374.048 435.557 374.353 435.199 374.657ZM416.608 404.107C416.749 404.191 416.891 404.276 417.032 404.359C417.695 403.609 418.359 402.859 419.481 401.59C418.579 401.947 418.281 401.973 418.143 402.136C417.603 402.769 417.114 403.446 416.608 404.107ZM422.475 388.765C422.66 388.959 422.846 389.152 423.033 389.345C423.883 388.463 424.732 387.582 425.583 386.7C425.431 386.552 425.278 386.406 425.126 386.258C424.242 387.095 423.359 387.93 422.475 388.765ZM369.582 382.458C370.134 383.338 370.687 384.218 371.279 385.162C372.565 383.69 372.565 383.69 369.582 382.458ZM398.538 436.265C398.721 436.468 398.905 436.671 399.09 436.874C400.677 434.999 402.266 433.125 403.853 431.25C403.678 431.1 403.503 430.95 403.326 430.8C401.73 432.622 400.133 434.442 398.538 436.265ZM385.86 401.696C388.647 404.306 391.265 407.083 394.642 408.897C392.465 405.56 389.12 403.651 385.86 401.696ZM435.28 430.64C431.741 426.112 421.745 418.926 418.632 418.467C424.4 422.684 429.84 426.663 435.28 430.64ZM372.404 374.863C375.671 380.079 380.296 383.928 384.777 387.94C384.492 387.096 383.96 386.466 383.411 385.851C382.018 384.294 380.361 382.903 379.279 381.154C377.552 378.363 375.127 376.473 372.404 374.863ZM431.196 389.248C431.805 388.838 432.414 388.43 433.023 388.022C432.837 387.849 432.649 387.678 432.463 387.505C432.06 388.111 431.656 388.716 431.253 389.322C428.984 391.373 426.68 393.388 424.467 395.499C423.783 396.151 423.344 397.059 422.792 397.85C421.68 397.964 421.223 398.694 421.234 399.841C421.737 399.157 422.24 398.472 422.742 397.787C424.742 396.032 426.805 394.34 428.715 392.492C429.682 391.556 430.377 390.337 431.196 389.248ZM443.45 362.486C445.488 361.409 446.47 359.482 447.557 357.639C445.516 358.74 443.552 359.904 443.52 362.573C441.303 364.039 439.343 365.78 437.831 367.997C440.415 366.904 442.094 364.866 443.45 362.486ZM425.375 406.266C425.828 405.781 426.28 405.296 426.734 404.811C426.553 404.703 426.371 404.595 426.191 404.488C425.945 405.114 425.698 405.74 425.452 406.366C423.753 406.419 423.127 407.698 422.321 408.769C422.455 408.912 422.589 409.056 422.725 409.2C423.613 408.227 424.501 407.256 425.375 406.266ZM365.304 455.934C363.647 457.328 362.014 458.754 360.325 460.107C358.668 461.434 358.361 464.092 355.749 464.782C356.286 459.577 360.473 456.631 362.273 452.265C360.62 453.946 358.967 455.628 357.313 457.31C357.122 457.15 356.929 456.99 356.734 456.83C357.16 454.566 359.461 453.529 360.599 451.728C361.827 449.788 363.395 448.069 364.756 446.211C366.116 444.355 367.367 442.418 368.734 440.568C370.101 438.716 371.543 436.917 372.971 435.111C374.4 433.304 375.846 431.513 377.296 429.723C378.746 427.934 380.205 426.149 381.673 424.374C383.14 422.599 384.623 420.836 386.102 419.069C387.572 417.313 389.045 415.56 390.676 413.615C387.979 411.249 385.418 409.041 382.903 406.782C379.399 403.636 375.929 400.453 372.447 397.282C367.368 392.661 363.596 386.948 359.424 381.573C358.841 380.821 358.787 379.654 358.357 378.252C360.597 378.604 361.298 380.397 362.959 380.89C363.539 380.115 364.155 379.287 364.978 378.183C365.366 379.212 365.631 379.919 366.008 380.921C367.018 378.6 368.554 380.253 370.069 380.298C369.657 378.561 368.034 376.773 370.742 375.934C368.409 371.55 368.409 371.55 371.92 369.97C373.119 371.043 374.366 372.158 375.657 373.312C376.329 370.765 375.257 368.989 373.63 367.36C372.785 366.514 372.078 365.528 371.311 364.601C370.553 363.684 370.055 362.68 369.992 361.539C370.184 361.42 370.376 361.302 370.568 361.185C374.252 365.294 377.847 369.487 381.646 373.487C385.435 377.479 389.364 381.349 393.353 385.144C397.398 388.991 401.593 392.684 405.905 396.611C407.895 394.565 409.598 392.77 411.348 391.021C416.379 385.996 421.419 380.979 426.476 375.977C432.383 370.133 438.283 364.281 444.252 358.501C445.535 357.258 447.072 356.263 448.554 355.244C449.065 354.892 449.762 354.813 451.092 354.37C448.843 359.685 444.434 362.487 441.885 366.428C442.585 367.151 443.215 367.8 443.976 368.585C445.697 367.815 447.654 366.822 449.215 365.057C450.262 363.873 450.596 364.033 452.489 365.361C450.822 366.729 449.199 367.986 447.663 369.344C446.186 370.649 444.798 372.056 443.683 373.847C445.401 372.673 447.069 371.419 448.85 370.349C450.567 369.315 452.4 368.47 454.182 367.543C454.357 367.734 454.531 367.925 454.706 368.116C454.024 369.088 453.343 370.059 452.713 370.958C454.341 370.931 456.007 370.904 457.809 370.874C458.263 373.505 454.361 373.529 454.977 376.007C453.723 377.536 452.467 379.064 451.163 380.652C451.593 380.921 451.978 381.162 452.539 381.517C443.042 391.149 433.604 400.72 423.942 410.519C434.55 418.222 444.084 426.52 453.82 435.137C452.497 435.755 451.659 436.146 451.055 436.428C448.169 436.334 446.972 432.278 443.39 433.988C444.357 434.862 445.212 435.655 446.091 436.419C446.816 437.046 447.82 437.408 447.421 438.788C447.31 439.172 448.046 439.927 448.539 440.336C450.001 441.55 451.545 442.667 453.041 443.845C453.48 444.192 453.86 444.612 454.64 445.355C452.281 445.611 451.305 443.825 449.506 443.401C447.292 445.953 445.275 443.488 442.581 442.426C444.439 444.918 446.961 446.07 447.998 448.743C445.183 449.965 442.796 450.766 440.192 448.388C438.002 446.39 435.398 444.845 432.977 443.099C432.848 443.255 432.719 443.411 432.59 443.567C436.939 447.083 441.286 450.599 446.014 454.423C444.182 454.87 443.375 454.096 442.523 453.529C431.922 446.474 421.74 438.849 411.84 430.843C410.763 429.973 409.609 429.201 408.29 428.236C407.169 429.436 406.141 430.484 405.171 431.587C400.804 436.549 396.395 441.476 392.117 446.512C387.913 451.462 383.903 456.576 379.695 461.523C377.89 463.648 375.9 465.642 373.811 467.487C372.426 468.71 370.659 469.373 368.113 469.378C368.997 467.762 369.599 466.658 370.297 465.379C369.714 464.957 369.109 464.52 368.5 464.081C368.998 462.588 369.499 461.085 370.134 459.183C369.025 459.468 368.216 459.676 367.433 459.877C366.07 459.643 365.355 458.314 365.237 455.85C367.255 455.024 367.43 454.853 368.186 452.719C366.794 453.722 365.837 454.62 365.304 455.934Z" fill="#D63037"/>
<rect x="44.0701" y="343.788" width="131.461" height="131.461" rx="10" fill="#170D41"/>
<path d="M131.526 381.657C131.418 381.532 131.311 381.406 131.204 381.281C130.833 381.67 130.463 382.059 130.094 382.448C130.206 382.552 130.318 382.656 130.432 382.759C130.796 382.392 131.162 382.024 131.526 381.657ZM130.726 377.339C130.84 377.494 130.954 377.649 131.069 377.804C131.408 377.438 131.748 377.071 132.088 376.705C131.999 376.618 131.911 376.53 131.823 376.442C131.458 376.741 131.092 377.041 130.726 377.339ZM138.742 371.899C138.831 372 138.92 372.102 139.009 372.203C139.359 371.883 139.71 371.562 140.059 371.243C139.978 371.158 139.898 371.073 139.817 370.988C139.458 371.291 139.099 371.595 138.742 371.899ZM120.15 401.35C120.291 401.433 120.433 401.518 120.574 401.602C121.237 400.851 121.902 400.102 123.023 398.832C122.121 399.19 121.824 399.216 121.685 399.379C121.146 400.011 120.657 400.688 120.15 401.35ZM126.017 386.008C126.202 386.201 126.389 386.394 126.575 386.587C127.425 385.705 128.275 384.825 129.125 383.942C128.973 383.795 128.82 383.648 128.668 383.5C127.784 384.337 126.901 385.172 126.017 386.008ZM73.1237 379.701C73.6757 380.58 74.2291 381.461 74.8208 382.404C76.1069 380.932 76.1069 380.932 73.1237 379.701ZM102.08 433.508C102.263 433.711 102.447 433.913 102.632 434.116C104.219 432.241 105.808 430.367 107.395 428.492C107.22 428.343 107.045 428.192 106.868 428.043C105.273 429.865 103.675 431.685 102.08 433.508ZM89.4022 398.939C92.1895 401.548 94.8069 404.326 98.1845 406.139C96.0067 402.803 92.662 400.893 89.4022 398.939ZM138.822 427.883C135.283 423.355 125.287 416.168 122.174 415.709C127.942 419.926 133.382 423.905 138.822 427.883ZM75.9466 372.106C79.2133 377.322 83.8386 381.17 88.3188 385.182C88.0339 384.338 87.5025 383.708 86.9533 383.093C85.5603 381.536 83.903 380.146 82.821 378.397C81.0938 375.605 78.6695 373.715 75.9466 372.106ZM134.738 386.49C135.348 386.081 135.956 385.672 136.565 385.264C136.379 385.092 136.191 384.92 136.005 384.748C135.602 385.353 135.198 385.959 134.796 386.564C132.526 388.616 130.222 390.631 128.009 392.741C127.325 393.393 126.886 394.301 126.334 395.093C125.222 395.207 124.766 395.937 124.777 397.083C125.279 396.4 125.782 395.715 126.285 395.03C128.284 393.274 130.347 391.582 132.258 389.735C133.225 388.798 133.919 387.579 134.738 386.49ZM146.993 359.728C149.031 358.652 150.013 356.725 151.099 354.881C149.058 355.982 147.094 357.146 147.062 359.816C144.845 361.281 142.885 363.022 141.373 365.24C143.957 364.147 145.637 362.109 146.993 359.728ZM128.917 403.508C129.37 403.023 129.822 402.538 130.276 402.054C130.095 401.945 129.913 401.837 129.733 401.73C129.487 402.356 129.24 402.982 128.994 403.608C127.295 403.662 126.669 404.941 125.863 406.012C125.997 406.154 126.131 406.298 126.267 406.442C127.156 405.469 128.043 404.498 128.917 403.508ZM68.8463 453.176C67.189 454.571 65.5563 455.996 63.8676 457.35C62.2103 458.677 61.9035 461.334 59.2915 462.024C59.8284 456.82 64.0155 453.873 65.8152 449.507C64.162 451.189 62.5088 452.871 60.8557 454.553C60.6639 454.393 60.4708 454.232 60.2763 454.072C60.7023 451.808 63.0033 450.771 64.1415 448.97C65.3687 447.031 66.937 445.312 68.2984 443.453C69.6585 441.597 70.909 439.66 72.2759 437.81C73.6429 435.958 75.0851 434.16 76.5137 432.353C77.9422 430.547 79.3886 428.755 80.8377 426.965C82.2882 425.176 83.7469 423.392 85.2151 421.616C86.6821 419.841 88.1654 418.079 89.6446 416.312C91.1143 414.556 92.5867 412.803 94.218 410.858C91.5211 408.491 88.9598 406.283 86.4451 404.024C82.9415 400.878 79.4708 397.695 75.9891 394.525C70.9104 389.903 67.1383 384.19 62.9663 378.816C62.3828 378.064 62.3294 376.897 61.8993 375.494C64.1387 375.846 64.84 377.639 66.5014 378.132C67.0808 377.357 67.6971 376.53 68.5203 375.426C68.9079 376.455 69.1736 377.161 69.5503 378.164C70.5597 375.842 72.0965 377.495 73.6113 377.541C73.1991 375.804 71.576 374.015 74.2839 373.177C71.9513 368.793 71.9513 368.793 75.4618 367.212C76.6616 368.286 77.908 369.401 79.1996 370.554C79.8707 368.008 78.7996 366.231 77.1725 364.603C76.3274 363.756 75.6206 362.77 74.8536 361.843C74.0948 360.927 73.5977 359.923 73.5346 358.782C73.7264 358.663 73.9182 358.545 74.1099 358.427C77.7943 362.536 81.3897 366.73 85.1878 370.729C88.9776 374.722 92.9058 378.591 96.8956 382.387C100.94 386.234 105.136 389.927 109.447 393.853C111.437 391.807 113.14 390.013 114.89 388.264C119.921 383.238 124.961 378.221 130.018 373.219C135.926 367.375 141.825 361.524 147.794 355.744C149.077 354.5 150.614 353.506 152.096 352.487C152.607 352.135 153.304 352.055 154.634 351.613C152.385 356.927 147.976 359.73 145.427 363.67C146.127 364.393 146.757 365.042 147.518 365.827C149.239 365.058 151.196 364.065 152.757 362.299C153.804 361.116 154.138 361.276 156.031 362.603C154.364 363.971 152.741 365.229 151.206 366.586C149.728 367.891 148.34 369.298 147.225 371.09C148.943 369.916 150.611 368.661 152.392 367.591C154.109 366.557 155.942 365.712 157.724 364.785C157.899 364.977 158.073 365.167 158.248 365.359C157.566 366.33 156.886 367.301 156.256 368.201C157.883 368.174 159.55 368.146 161.351 368.116C161.805 370.747 157.903 370.772 158.52 373.25C157.265 374.778 156.009 376.307 154.705 377.894C155.135 378.164 155.52 378.405 156.082 378.76C146.584 388.391 137.146 397.962 127.484 407.761C138.092 415.464 147.627 423.763 157.362 432.379C156.039 432.997 155.201 433.389 154.597 433.671C151.711 433.576 150.514 429.521 146.932 431.23C147.899 432.104 148.754 432.897 149.633 433.661C150.358 434.289 151.362 434.65 150.963 436.031C150.852 436.414 151.588 437.169 152.081 437.579C153.544 438.792 155.087 439.91 156.583 441.088C157.023 441.434 157.402 441.855 158.183 442.597C155.823 442.853 154.848 441.067 153.048 440.644C150.834 443.196 148.817 440.73 146.123 439.669C147.981 442.16 150.503 443.312 151.54 445.986C148.725 447.207 146.338 448.009 143.734 445.631C141.544 443.632 138.94 442.087 136.519 440.341C136.39 440.497 136.261 440.653 136.132 440.81C140.481 444.326 144.828 447.841 149.557 451.666C147.724 452.112 146.917 451.338 146.065 450.771C135.464 443.716 125.282 436.091 115.382 428.085C114.305 427.216 113.151 426.443 111.832 425.479C110.711 426.679 109.683 427.727 108.713 428.829C104.347 433.791 99.9377 438.718 95.6588 443.754C91.4553 448.704 87.445 453.819 83.2374 458.766C81.4321 460.89 79.442 462.884 77.3533 464.729C75.9685 465.952 74.2017 466.615 71.6555 466.621C72.5389 465.005 73.1416 463.901 73.8387 462.621C73.2566 462.2 72.6512 461.763 72.0417 461.323C72.5403 459.83 73.0416 458.328 73.6757 456.425C72.5677 456.71 71.7582 456.918 70.9747 457.12C69.6119 456.885 68.897 455.557 68.7792 453.093C70.7967 452.267 70.972 452.096 71.7281 449.962C70.3365 450.964 69.3791 451.863 68.8463 453.176Z" fill="#D63037"/>
<rect x="341.012" y="194.201" width="131.461" height="131.461" rx="10" fill="#170D41"/>
<path d="M439.401 219.357C439.747 219.621 440.113 219.906 440.459 220.191C440.805 220.476 441.151 220.761 441.497 221.066C442.209 221.636 442.881 222.267 443.552 222.898C443.898 223.203 444.224 223.549 444.55 223.854C444.875 224.18 445.201 224.505 445.547 224.851C446.218 225.564 446.89 226.317 447.5 227.07C449.983 230.102 452.039 233.419 453.768 236.919C455.498 240.42 456.862 244.103 457.9 247.929C458.917 251.755 459.609 255.723 459.833 259.753C460.057 263.782 459.874 267.914 459.1 271.963C458.347 276.013 457.045 280.002 455.152 283.685C453.28 287.369 450.879 290.747 448.152 293.637C446.788 295.082 445.343 296.425 443.858 297.666C443.491 297.972 443.105 298.277 442.738 298.562C442.352 298.847 441.985 299.132 441.599 299.437C440.785 300.027 439.95 300.597 439.136 301.106C437.142 302.347 435.087 303.385 432.97 304.28C430.854 305.176 428.696 305.888 426.519 306.499C424.321 307.089 422.103 307.557 419.864 307.882C417.626 308.208 415.367 308.412 413.087 308.493C408.549 308.635 403.95 308.289 399.412 307.414C394.873 306.539 390.417 305.155 386.143 303.202C381.89 301.268 377.84 298.786 374.177 295.855C370.514 292.925 367.237 289.546 364.449 285.883C363.045 284.052 361.742 282.159 360.582 280.205C359.402 278.252 358.344 276.257 357.387 274.243C357.163 273.734 356.919 273.225 356.695 272.716C356.451 272.208 356.268 271.699 356.044 271.19L355.719 270.417L355.413 269.643L355.108 268.87L354.966 268.483L354.884 268.28L354.803 268.056C353.928 265.655 353.378 263.294 352.992 260.994C353.297 260.954 353.806 261.646 354.233 261.951C354.66 262.256 354.945 262.195 354.823 260.689C354.701 259.203 354.66 257.901 354.701 256.782C354.721 256.232 354.742 255.703 354.782 255.235C354.823 254.767 354.864 254.319 354.925 253.912C355.027 253.098 355.169 252.447 355.291 251.877C355.434 251.328 355.596 250.88 355.739 250.534C356.044 249.842 356.349 249.516 356.675 249.354C356.98 249.191 357.286 249.211 357.611 249.232C357.774 249.232 357.815 249.74 357.835 250.473C357.855 250.839 357.855 251.246 357.855 251.674C357.855 252.101 357.876 252.549 357.876 252.976C357.876 253.403 357.896 253.81 357.916 254.136C357.937 254.482 357.957 254.767 357.978 254.95C358.039 255.337 358.12 255.316 358.242 254.645C358.344 256.66 358.608 259.02 359.097 261.279C359.341 262.399 359.646 263.497 359.972 264.515C360.053 264.78 360.135 265.024 360.236 265.248C360.318 265.492 360.42 265.716 360.501 265.96C360.684 266.408 360.867 266.815 361.03 267.201C361.356 267.975 361.681 268.605 361.926 269.074C362.17 269.542 362.353 269.847 362.475 269.949C362.679 270.132 362.536 269.46 361.926 267.568C361.885 267.222 361.763 266.794 361.62 266.265C361.58 266.143 361.539 266.001 361.498 265.858C361.457 265.716 361.417 265.573 361.376 265.41C361.295 265.105 361.193 264.78 361.091 264.434C360.725 263.07 360.338 261.462 360.094 259.814C359.829 258.186 359.707 256.537 359.707 255.133C359.728 254.441 359.728 253.79 359.789 253.261C359.85 252.712 359.931 252.264 360.053 251.938C360.277 251.287 360.521 251.124 360.745 251.206C360.969 251.287 361.193 251.613 361.437 251.918C361.905 252.549 362.373 253.159 362.821 251.918C362.821 250.676 362.862 248.825 363.045 246.952C363.208 245.1 363.472 243.248 363.676 242.007C363.92 241.417 364.164 241.315 364.347 241.417C364.53 241.539 364.673 241.865 364.815 242.211C365.1 242.882 365.304 243.513 365.507 242.333C366.423 238.832 367.542 234.762 369.272 230.733C370.127 228.718 371.144 226.744 372.345 224.912C373.546 223.081 374.95 221.453 376.476 220.171C376.68 220.415 377.372 220.232 377.555 220.435C377.636 220.537 377.596 220.741 377.29 221.127C377.107 221.453 376.721 221.88 376.11 222.633C375.398 223.406 374.685 224.241 374.034 225.197C373.709 225.645 373.403 226.154 373.078 226.642C372.915 226.886 372.793 227.151 372.63 227.416C372.488 227.68 372.325 227.924 372.203 228.189C371.083 230.305 370.127 232.605 369.354 235.006C368.58 237.408 367.99 239.891 367.563 242.414C367.135 244.938 366.891 247.502 366.81 250.046C366.728 252.589 366.871 255.093 367.196 257.494L367.339 258.389C367.359 258.532 367.38 258.695 367.42 258.837L367.502 259.264C367.563 259.549 367.603 259.834 367.685 260.119L367.888 260.954C367.949 261.239 368.051 261.483 368.112 261.768C368.194 262.032 368.275 262.297 368.356 262.561L368.621 263.335L368.987 264.23C369.944 266.631 371.043 268.951 372.304 271.149C373.566 273.347 374.97 275.443 376.517 277.397C379.651 281.284 383.355 284.642 387.568 287.226C391.76 289.811 396.44 291.683 401.325 292.762C406.209 293.84 411.296 294.146 416.282 293.698C418.765 293.454 421.228 293.047 423.609 292.416C425.969 291.785 428.249 290.971 430.324 289.953C431.362 289.445 432.339 288.895 433.214 288.285C433.642 288 434.13 287.633 434.598 287.287C435.066 286.921 435.534 286.575 435.962 286.189C437.752 284.683 439.299 283.014 440.622 281.182C443.268 277.539 444.957 273.266 445.649 268.626C445.995 266.306 446.117 263.925 446.015 261.503C445.913 259.081 445.567 256.639 445.058 254.217C444.02 249.374 442.209 244.592 439.788 240.338C438.566 238.222 437.203 236.248 435.738 234.579L435.453 234.274L435.31 234.111L435.148 233.948L434.517 233.277C434.089 232.829 433.642 232.401 433.214 231.974C432.99 231.75 432.767 231.547 432.543 231.343L431.851 230.733C431.383 230.326 430.915 229.939 430.447 229.552C426.6 226.459 422.204 223.936 417.503 221.941C412.782 219.947 407.735 218.482 402.566 217.464C397.377 216.426 392.045 215.836 386.692 215.592C384.23 215.429 382.846 215.307 382.276 215.124C381.971 215.042 381.869 214.941 381.971 214.839C382.052 214.737 382.317 214.615 382.704 214.513C384.25 214.045 388.015 213.577 391.78 213.414C390.457 213.435 389.847 213.251 389.236 213.068C388.931 212.967 388.626 212.885 388.219 212.824C387.832 212.763 387.364 212.743 386.733 212.804C386.753 212.336 388.036 211.745 390.6 211.379C391.251 211.298 391.963 211.196 392.777 211.155C393.184 211.135 393.612 211.115 394.039 211.094C394.487 211.074 394.934 211.074 395.423 211.074C397.356 211.074 399.595 211.216 402.139 211.583C399.615 211.135 397.071 210.809 394.527 210.545C393.266 210.26 393.286 210.036 393.632 209.792C393.978 209.548 394.65 209.303 394.69 208.998C395.341 209.059 395.993 209.141 396.583 209.202C397.193 209.283 397.763 209.344 398.231 209.385C399.208 209.487 399.859 209.507 399.88 209.344C399.92 209.039 400.022 208.428 400.063 208.123C398.76 207.92 396.807 207.675 394.833 207.472C392.859 207.268 390.885 207.126 389.582 207.065C392.207 207.207 394.833 207.472 394.873 207.167C394.914 206.861 394.975 206.251 394.996 205.946C397.661 206.047 400.979 206.576 404.275 207.268C405.924 207.614 407.552 208.021 409.099 208.388C409.872 208.591 410.625 208.774 411.358 208.957C412.07 209.141 412.782 209.303 413.433 209.466L413.698 208.571C413.047 208.347 412.355 208.123 411.642 207.899C410.91 207.675 410.157 207.492 409.384 207.268C407.817 206.882 406.148 206.515 404.479 206.23C401.141 205.64 397.784 205.274 395.118 205.009C396.481 204.989 397.173 204.908 397.519 204.765C397.885 204.623 397.906 204.379 397.946 204.073C402.017 204.419 406.066 205.294 410.035 206.353C412.029 206.882 414.003 207.472 415.998 208.042C417.992 208.632 419.986 209.242 422.001 209.812C419.416 208.754 416.771 207.838 414.125 207.065C414.492 207.065 414.878 207.106 415.285 207.146C415.692 207.187 416.14 207.248 416.608 207.35C417.076 207.451 417.544 207.553 418.053 207.675C418.562 207.818 419.07 207.96 419.6 208.123C421.736 208.795 424.117 209.771 426.498 210.972C428.88 212.173 431.281 213.577 433.479 215.042C435.656 216.528 437.671 218.034 439.401 219.357Z" fill="#A0B619"/>
<rect x="192.278" y="41.8571" width="131.461" height="131.461" rx="10" fill="#170D41"/>
<path d="M288.902 69.9859C289.248 70.2505 289.615 70.5354 289.961 70.8203C290.307 71.1052 290.653 71.3901 290.999 71.6954C291.711 72.2652 292.382 72.8961 293.054 73.527C293.4 73.8322 293.726 74.1782 294.051 74.4834C294.377 74.8091 294.702 75.1347 295.048 75.4806C295.72 76.1929 296.391 76.9459 297.002 77.6989C299.485 80.7311 301.54 84.0483 303.27 87.5486C305 91.049 306.363 94.7324 307.401 98.5584C308.419 102.384 309.111 106.353 309.335 110.382C309.558 114.412 309.375 118.543 308.602 122.593C307.849 126.642 306.547 130.631 304.654 134.315C302.782 137.998 300.38 141.376 297.653 144.266C296.29 145.711 294.845 147.054 293.359 148.296C292.993 148.601 292.606 148.906 292.24 149.191C291.853 149.476 291.487 149.761 291.1 150.066C290.286 150.656 289.452 151.226 288.638 151.735C286.643 152.976 284.588 154.014 282.472 154.91C280.355 155.805 278.198 156.517 276.02 157.128C273.822 157.718 271.604 158.186 269.366 158.512C267.127 158.837 264.868 159.041 262.589 159.122C258.051 159.265 253.451 158.919 248.913 158.044C244.375 157.169 239.918 155.785 235.644 153.831C231.391 151.898 227.341 149.415 223.678 146.484C220.015 143.554 216.739 140.176 213.951 136.513C212.546 134.681 211.244 132.788 210.084 130.835C208.904 128.881 207.845 126.887 206.889 124.872C206.665 124.363 206.421 123.854 206.197 123.346C205.953 122.837 205.77 122.328 205.546 121.819L205.22 121.046L204.915 120.273L204.61 119.499L204.467 119.113L204.386 118.909L204.304 118.685C203.429 116.284 202.88 113.923 202.493 111.624C202.798 111.583 203.307 112.275 203.734 112.58C204.162 112.885 204.447 112.824 204.325 111.318C204.203 109.833 204.162 108.53 204.203 107.411C204.223 106.861 204.243 106.332 204.284 105.864C204.325 105.396 204.365 104.949 204.426 104.542C204.528 103.727 204.671 103.076 204.793 102.506C204.935 101.957 205.098 101.509 205.24 101.163C205.546 100.471 205.851 100.146 206.177 99.9829C206.482 99.8201 206.787 99.8405 207.113 99.8608C207.276 99.8608 207.316 100.37 207.337 101.102C207.357 101.469 207.357 101.876 207.357 102.303C207.357 102.73 207.377 103.178 207.377 103.605C207.377 104.033 207.398 104.44 207.418 104.765C207.438 105.111 207.459 105.396 207.479 105.579C207.54 105.966 207.621 105.946 207.744 105.274C207.845 107.289 208.11 109.65 208.598 111.908C208.843 113.028 209.148 114.127 209.473 115.144C209.555 115.409 209.636 115.653 209.738 115.877C209.819 116.121 209.921 116.345 210.003 116.589C210.186 117.037 210.369 117.444 210.532 117.831C210.857 118.604 211.183 119.235 211.427 119.703C211.671 120.171 211.854 120.476 211.977 120.578C212.18 120.761 212.038 120.089 211.427 118.197C211.386 117.851 211.264 117.424 211.122 116.894C211.081 116.772 211.04 116.63 211 116.487C210.959 116.345 210.918 116.202 210.878 116.04C210.796 115.734 210.694 115.409 210.593 115.063C210.226 113.699 209.84 112.092 209.596 110.443C209.331 108.815 209.209 107.167 209.209 105.763C209.229 105.071 209.229 104.419 209.29 103.89C209.351 103.341 209.433 102.893 209.555 102.567C209.779 101.916 210.023 101.753 210.247 101.835C210.471 101.916 210.694 102.242 210.939 102.547C211.407 103.178 211.875 103.789 212.323 102.547C212.323 101.306 212.363 99.4538 212.546 97.5816C212.709 95.7296 212.974 93.8777 213.177 92.6363C213.421 92.0461 213.666 91.9444 213.849 92.0461C214.032 92.1683 214.174 92.4939 214.317 92.8398C214.602 93.5114 214.805 94.1423 215.009 92.9619C215.925 89.4616 217.044 85.3914 218.774 81.362C219.628 79.3473 220.646 77.3733 221.847 75.5417C223.047 73.7101 224.452 72.0821 225.978 70.8C226.181 71.0442 226.873 70.861 227.056 71.0645C227.138 71.1663 227.097 71.3698 226.792 71.7564C226.609 72.0821 226.222 72.5094 225.612 73.2624C224.899 74.0357 224.187 74.8701 223.536 75.8266C223.21 76.2743 222.905 76.7831 222.579 77.2715C222.416 77.5157 222.294 77.7803 222.132 78.0448C221.989 78.3094 221.826 78.5536 221.704 78.8182C220.585 80.9346 219.628 83.2343 218.855 85.6357C218.082 88.037 217.492 90.5198 217.064 93.0433C216.637 95.5668 216.393 98.131 216.311 100.675C216.23 103.219 216.372 105.722 216.698 108.123L216.84 109.019C216.861 109.161 216.881 109.324 216.922 109.466L217.003 109.894C217.064 110.179 217.105 110.464 217.186 110.748L217.39 111.583C217.451 111.868 217.553 112.112 217.614 112.397C217.695 112.661 217.777 112.926 217.858 113.191L218.122 113.964L218.489 114.859C219.445 117.261 220.544 119.581 221.806 121.779C223.068 123.976 224.472 126.073 226.019 128.026C229.153 131.913 232.856 135.271 237.069 137.856C241.261 140.44 245.942 142.313 250.826 143.391C255.71 144.47 260.798 144.775 265.784 144.327C268.267 144.083 270.729 143.676 273.11 143.045C275.471 142.414 277.75 141.6 279.826 140.583C280.864 140.074 281.841 139.524 282.716 138.914C283.143 138.629 283.632 138.263 284.1 137.917C284.568 137.55 285.036 137.204 285.463 136.818C287.254 135.312 288.801 133.643 290.123 131.812C292.769 128.169 294.458 123.895 295.15 119.255C295.496 116.935 295.618 114.554 295.516 112.132C295.415 109.711 295.069 107.269 294.56 104.847C293.522 100.003 291.711 95.2209 289.289 90.9676C288.068 88.8511 286.705 86.8771 285.239 85.2083L284.954 84.903L284.812 84.7402L284.649 84.5774L284.018 83.9058C283.591 83.4581 283.143 83.0308 282.716 82.6034C282.492 82.3795 282.268 82.176 282.044 81.9725L281.352 81.362C280.884 80.955 280.416 80.5683 279.948 80.1817C276.102 77.0883 271.706 74.5648 267.005 72.5705C262.284 70.5761 257.237 69.1108 252.068 68.0933C246.878 67.0554 241.546 66.4653 236.194 66.221C233.732 66.0582 232.348 65.9361 231.778 65.753C231.473 65.6716 231.371 65.5698 231.473 65.4681C231.554 65.3663 231.819 65.2442 232.205 65.1425C233.752 64.6744 237.517 64.2063 241.282 64.0435C239.959 64.0639 239.348 63.8807 238.738 63.6975C238.433 63.5958 238.127 63.5144 237.72 63.4533C237.334 63.3923 236.866 63.3719 236.235 63.433C236.255 62.9649 237.537 62.3747 240.101 62.0084C240.753 61.927 241.465 61.8253 242.279 61.7846C242.686 61.7642 243.113 61.7439 243.541 61.7235C243.988 61.7032 244.436 61.7032 244.924 61.7032C246.858 61.7032 249.096 61.8456 251.64 62.2119C249.117 61.7642 246.573 61.4386 244.029 61.1741C242.767 60.8891 242.788 60.6653 243.134 60.4211C243.48 60.1769 244.151 59.9327 244.192 59.6274C244.843 59.6884 245.494 59.7699 246.084 59.8309C246.695 59.9123 247.265 59.9734 247.733 60.0141C248.71 60.1158 249.361 60.1362 249.381 59.9734C249.422 59.6681 249.524 59.0576 249.564 58.7523C248.262 58.5488 246.308 58.3046 244.334 58.1011C242.36 57.8976 240.386 57.7551 239.084 57.6941C241.709 57.8365 244.334 58.1011 244.375 57.7958C244.416 57.4906 244.477 56.88 244.497 56.5748C247.163 56.6765 250.48 57.2057 253.777 57.8976C255.425 58.2435 257.053 58.6506 258.6 59.0169C259.373 59.2204 260.126 59.4035 260.859 59.5867C261.571 59.7699 262.284 59.9327 262.935 60.0955L263.199 59.2C262.548 58.9762 261.856 58.7523 261.144 58.5285C260.411 58.3046 259.658 58.1214 258.885 57.8976C257.318 57.5109 255.649 57.1446 253.981 56.8597C250.643 56.2695 247.285 55.9032 244.619 55.6386C245.983 55.6183 246.675 55.5369 247.021 55.3944C247.387 55.252 247.407 55.0078 247.448 54.7025C251.518 55.0485 255.568 55.9236 259.536 56.9818C261.531 57.5109 263.505 58.1011 265.499 58.6709C267.493 59.2611 269.488 59.8716 271.503 60.4414C268.918 59.3832 266.272 58.4674 263.627 57.6941C263.993 57.6941 264.38 57.7348 264.787 57.7755C265.194 57.8162 265.641 57.8772 266.11 57.979C266.578 58.0807 267.046 58.1825 267.554 58.3046C268.063 58.4471 268.572 58.5895 269.101 58.7523C271.238 59.4239 273.619 60.4007 276 61.6014C278.381 62.8021 280.782 64.2063 282.98 65.6716C285.158 67.1572 287.173 68.6631 288.902 69.9859Z" fill="#A0B619"/>
<rect x="341.012" y="41.8568" width="131.461" height="131.461" rx="10" fill="#170D41"/>
<path d="M427.984 78.3042C427.876 78.1796 427.769 78.0536 427.662 77.9289C427.291 78.3179 426.921 78.7069 426.551 79.0959C426.664 79.2 426.776 79.3041 426.89 79.4068C427.254 79.0397 427.62 78.6713 427.984 78.3042ZM427.184 73.987C427.298 74.1418 427.412 74.2966 427.527 74.4513C427.866 74.0856 428.206 73.7186 428.546 73.3529C428.457 73.2652 428.369 73.1776 428.281 73.0899C427.916 73.3885 427.55 73.6884 427.184 73.987ZM435.199 68.5467C435.288 68.6481 435.378 68.7494 435.467 68.8508C435.817 68.5303 436.168 68.2098 436.517 67.8907C436.436 67.8057 436.355 67.7208 436.275 67.6359C435.916 67.9386 435.557 68.2427 435.199 68.5467ZM416.608 97.9972C416.749 98.0808 416.891 98.1657 417.032 98.2493C417.695 97.4987 418.359 96.7495 419.481 95.4798C418.579 95.8373 418.281 95.8633 418.143 96.0263C417.603 96.6591 417.114 97.3357 416.608 97.9972ZM422.475 82.6556C422.66 82.8488 422.846 83.0419 423.033 83.235C423.883 82.3529 424.732 81.4722 425.583 80.5902C425.431 80.4423 425.278 80.2957 425.126 80.1478C424.242 80.9846 423.359 81.8201 422.475 82.6556ZM369.582 76.3483C370.134 77.2277 370.687 78.1083 371.279 79.052C372.565 77.5797 372.565 77.5797 369.582 76.3483ZM398.538 130.156C398.721 130.358 398.905 130.561 399.09 130.764C400.677 128.889 402.266 127.015 403.853 125.14C403.678 124.991 403.503 124.84 403.326 124.691C401.73 126.512 400.133 128.333 398.538 130.156ZM385.86 95.5866C388.647 98.1958 391.265 100.974 394.642 102.787C392.465 99.4505 389.12 97.5411 385.86 95.5866ZM435.28 124.53C431.741 120.002 421.745 112.816 418.632 112.357C424.4 116.574 429.84 120.553 435.28 124.53ZM372.404 68.7535C375.671 73.9692 380.296 77.818 384.777 81.8297C384.492 80.986 383.96 80.356 383.411 79.741C382.018 78.1837 380.361 76.7935 379.279 75.0444C377.552 72.253 375.127 70.3629 372.404 68.7535ZM431.196 83.1378C431.805 82.7282 432.414 82.3201 433.023 81.9119C432.837 81.7393 432.649 81.5681 432.463 81.3955C432.06 82.0009 431.656 82.6063 431.253 83.2117C428.984 85.2635 426.68 87.2783 424.467 89.3889C423.783 90.0409 423.344 90.949 422.792 91.7406C421.68 91.8543 421.223 92.5843 421.234 93.7307C421.737 93.0473 422.24 92.3624 422.742 91.6776C424.742 89.9217 426.805 88.2302 428.715 86.3825C429.682 85.4456 430.377 84.2266 431.196 83.1378ZM443.45 56.3759C445.488 55.2993 446.47 53.3722 447.557 51.5286C445.516 52.6298 443.552 53.7941 443.52 56.4635C441.303 57.9291 439.343 59.6699 437.831 61.8874C440.415 60.7944 442.094 58.7564 443.45 56.3759ZM425.375 100.156C425.828 99.671 426.28 99.1861 426.734 98.7013C426.553 98.593 426.371 98.4848 426.191 98.378C425.945 99.0039 425.698 99.6299 425.452 100.256C423.753 100.309 423.127 101.589 422.321 102.66C422.455 102.802 422.589 102.946 422.725 103.09C423.613 102.117 424.501 101.146 425.375 100.156ZM365.304 149.824C363.647 151.218 362.014 152.644 360.325 153.997C358.668 155.325 358.361 157.982 355.749 158.672C356.286 153.467 360.473 150.521 362.273 146.155C360.62 147.837 358.967 149.519 357.313 151.2C357.122 151.04 356.929 150.88 356.734 150.72C357.16 148.456 359.461 147.419 360.599 145.618C361.827 143.678 363.395 141.959 364.756 140.101C366.116 138.245 367.367 136.308 368.734 134.458C370.101 132.606 371.543 130.808 372.971 129.001C374.4 127.194 375.846 125.403 377.296 123.613C378.746 121.824 380.205 120.039 381.673 118.264C383.14 116.489 384.623 114.726 386.102 112.959C387.572 111.204 389.045 109.45 390.676 107.505C387.979 105.139 385.418 102.931 382.903 100.672C379.399 97.5261 375.929 94.343 372.447 91.1722C367.368 86.551 363.596 80.8381 359.424 75.4635C358.841 74.7116 358.787 73.5446 358.357 72.1421C360.597 72.4941 361.298 74.287 362.959 74.7801C363.539 74.0048 364.155 73.1776 364.978 72.0736C365.366 73.1022 365.631 73.809 366.008 74.8116C367.018 72.49 368.554 74.1432 370.069 74.1884C369.657 72.4516 368.034 70.6629 370.742 69.8246C368.409 65.4403 368.409 65.4403 371.92 63.8597C373.119 64.9335 374.366 66.0485 375.657 67.2017C376.329 64.6555 375.257 62.879 373.63 61.2505C372.785 60.4041 372.078 59.4179 371.311 58.4906C370.553 57.5743 370.055 56.5704 369.992 55.4294C370.184 55.3103 370.376 55.1925 370.568 55.0747C374.252 59.1837 377.847 63.3776 381.646 67.377C385.435 71.3696 389.364 75.2389 393.353 79.0342C397.398 82.8816 401.593 86.5742 405.905 90.5011C407.895 88.4548 409.598 86.6605 411.348 84.9115C416.379 79.8862 421.419 74.8691 426.476 69.8671C432.383 64.0227 438.283 58.1715 444.252 52.3915C445.535 51.1479 447.072 50.1535 448.554 49.1345C449.065 48.7825 449.762 48.703 451.092 48.2606C448.843 53.5749 444.434 56.3773 441.885 60.3178C442.585 61.041 443.215 61.6902 443.976 62.475C445.697 61.7052 447.654 60.7122 449.215 58.9467C450.262 57.7634 450.596 57.9236 452.489 59.2508C450.822 60.6191 449.199 61.8765 447.663 63.2338C446.186 64.5391 444.798 65.9457 443.683 67.7372C445.401 66.5634 447.069 65.3088 448.85 64.2391C450.567 63.205 452.4 62.3599 454.182 61.4327C454.357 61.6244 454.531 61.8148 454.706 62.0066C454.024 62.9777 453.343 63.9488 452.713 64.8486C454.341 64.8212 456.007 64.7938 457.809 64.7637C458.263 67.3948 454.361 67.4195 454.977 69.8972C453.723 71.4258 452.467 72.9543 451.163 74.5417C451.593 74.8116 451.978 75.0526 452.539 75.4074C443.042 85.0388 433.604 94.6101 423.942 104.409C434.55 112.112 444.084 120.41 453.82 129.027C452.497 129.645 451.659 130.036 451.055 130.319C448.169 130.224 446.972 126.169 443.39 127.878C444.357 128.752 445.212 129.545 446.091 130.309C446.816 130.936 447.82 131.298 447.421 132.679C447.31 133.062 448.046 133.817 448.539 134.226C450.001 135.44 451.545 136.557 453.041 137.735C453.48 138.082 453.86 138.502 454.64 139.245C452.281 139.501 451.305 137.715 449.506 137.292C447.292 139.843 445.275 137.378 442.581 136.316C444.439 138.808 446.961 139.96 447.998 142.633C445.183 143.855 442.796 144.656 440.192 142.278C438.002 140.28 435.398 138.735 432.977 136.989C432.848 137.145 432.719 137.301 432.59 137.457C436.939 140.973 441.286 144.489 446.014 148.313C444.182 148.76 443.375 147.986 442.523 147.419C431.922 140.364 421.74 132.739 411.84 124.733C410.763 123.863 409.609 123.091 408.29 122.127C407.169 123.326 406.141 124.374 405.171 125.477C400.804 130.439 396.395 135.366 392.117 140.402C387.913 145.352 383.903 150.466 379.695 155.414C377.89 157.538 375.9 159.532 373.811 161.377C372.426 162.6 370.659 163.263 368.113 163.269C368.997 161.652 369.599 160.548 370.297 159.269C369.714 158.847 369.109 158.41 368.5 157.971C368.998 156.478 369.499 154.975 370.134 153.073C369.025 153.358 368.216 153.566 367.433 153.767C366.07 153.533 365.355 152.204 365.237 149.74C367.255 148.915 367.43 148.743 368.186 146.609C366.794 147.612 365.837 148.51 365.304 149.824Z" fill="#D63037"/>
<rect x="42.1647" y="41.8568" width="131.461" height="131.461" rx="10" fill="#170D41"/>
<path d="M131.526 78.3042C131.418 78.1796 131.311 78.0536 131.204 77.9289C130.833 78.3179 130.463 78.7069 130.094 79.0959C130.206 79.2 130.318 79.3041 130.432 79.4068C130.796 79.0397 131.162 78.6713 131.526 78.3042ZM130.726 73.987C130.84 74.1418 130.954 74.2966 131.069 74.4513C131.408 74.0856 131.748 73.7186 132.088 73.3529C131.999 73.2652 131.911 73.1776 131.823 73.0899C131.458 73.3885 131.092 73.6884 130.726 73.987ZM138.742 68.5467C138.831 68.6481 138.92 68.7494 139.009 68.8508C139.359 68.5303 139.71 68.2098 140.059 67.8907C139.978 67.8057 139.898 67.7208 139.817 67.6359C139.458 67.9386 139.099 68.2427 138.742 68.5467ZM120.15 97.9972C120.291 98.0808 120.433 98.1657 120.574 98.2493C121.237 97.4987 121.902 96.7495 123.023 95.4798C122.121 95.8373 121.824 95.8633 121.685 96.0263C121.146 96.6591 120.657 97.3357 120.15 97.9972ZM126.017 82.6556C126.202 82.8488 126.389 83.0419 126.575 83.235C127.425 82.3529 128.275 81.4722 129.125 80.5902C128.973 80.4423 128.82 80.2957 128.668 80.1478C127.784 80.9846 126.901 81.8201 126.017 82.6556ZM73.1237 76.3483C73.6757 77.2277 74.2291 78.1083 74.8208 79.052C76.1069 77.5797 76.1069 77.5797 73.1237 76.3483ZM102.08 130.156C102.263 130.358 102.447 130.561 102.632 130.764C104.219 128.889 105.808 127.015 107.395 125.14C107.22 124.991 107.045 124.84 106.868 124.691C105.273 126.512 103.675 128.333 102.08 130.156ZM89.4022 95.5866C92.1895 98.1958 94.8069 100.974 98.1845 102.787C96.0067 99.4505 92.662 97.5411 89.4022 95.5866ZM138.822 124.53C135.283 120.002 125.287 112.816 122.174 112.357C127.942 116.574 133.382 120.553 138.822 124.53ZM75.9466 68.7535C79.2133 73.9692 83.8386 77.818 88.3188 81.8297C88.0339 80.986 87.5025 80.356 86.9533 79.741C85.5603 78.1837 83.903 76.7935 82.821 75.0444C81.0938 72.253 78.6695 70.3629 75.9466 68.7535ZM134.738 83.1378C135.348 82.7282 135.956 82.3201 136.565 81.9119C136.379 81.7393 136.191 81.5681 136.005 81.3955C135.602 82.0009 135.198 82.6063 134.796 83.2117C132.526 85.2635 130.222 87.2783 128.009 89.3889C127.325 90.0409 126.886 90.949 126.334 91.7406C125.222 91.8543 124.766 92.5843 124.777 93.7307C125.279 93.0473 125.782 92.3624 126.285 91.6776C128.284 89.9217 130.347 88.2302 132.258 86.3825C133.225 85.4456 133.919 84.2266 134.738 83.1378ZM146.993 56.3759C149.031 55.2993 150.013 53.3722 151.099 51.5286C149.058 52.6298 147.094 53.7941 147.062 56.4635C144.845 57.9291 142.885 59.6699 141.373 61.8874C143.957 60.7944 145.637 58.7564 146.993 56.3759ZM128.917 100.156C129.37 99.671 129.822 99.1861 130.276 98.7013C130.095 98.593 129.913 98.4848 129.733 98.378C129.487 99.0039 129.24 99.6299 128.994 100.256C127.295 100.309 126.669 101.589 125.863 102.66C125.997 102.802 126.131 102.946 126.267 103.09C127.156 102.117 128.043 101.146 128.917 100.156ZM68.8463 149.824C67.189 151.218 65.5563 152.644 63.8676 153.997C62.2103 155.325 61.9035 157.982 59.2915 158.672C59.8284 153.467 64.0155 150.521 65.8152 146.155C64.162 147.837 62.5088 149.519 60.8557 151.2C60.6639 151.04 60.4708 150.88 60.2763 150.72C60.7023 148.456 63.0033 147.419 64.1415 145.618C65.3687 143.678 66.937 141.959 68.2984 140.101C69.6585 138.245 70.909 136.308 72.2759 134.458C73.6429 132.606 75.0851 130.808 76.5137 129.001C77.9422 127.194 79.3886 125.403 80.8377 123.613C82.2882 121.824 83.7469 120.039 85.2151 118.264C86.6821 116.489 88.1654 114.726 89.6446 112.959C91.1143 111.204 92.5867 109.45 94.218 107.505C91.5211 105.139 88.9598 102.931 86.4451 100.672C82.9415 97.5261 79.4708 94.343 75.9891 91.1722C70.9104 86.551 67.1383 80.8381 62.9663 75.4635C62.3828 74.7116 62.3294 73.5446 61.8993 72.1421C64.1387 72.4941 64.84 74.287 66.5014 74.7801C67.0808 74.0048 67.6971 73.1776 68.5203 72.0736C68.9079 73.1022 69.1736 73.809 69.5503 74.8116C70.5597 72.49 72.0965 74.1432 73.6113 74.1884C73.1991 72.4516 71.576 70.6629 74.2839 69.8246C71.9513 65.4403 71.9513 65.4403 75.4618 63.8597C76.6616 64.9335 77.908 66.0485 79.1996 67.2017C79.8707 64.6555 78.7996 62.879 77.1725 61.2505C76.3274 60.4041 75.6206 59.4179 74.8536 58.4906C74.0948 57.5743 73.5977 56.5704 73.5346 55.4294C73.7264 55.3103 73.9182 55.1925 74.1099 55.0747C77.7943 59.1837 81.3897 63.3776 85.1878 67.377C88.9776 71.3696 92.9058 75.2389 96.8956 79.0342C100.94 82.8816 105.136 86.5742 109.447 90.5011C111.437 88.4548 113.14 86.6605 114.89 84.9115C119.921 79.8862 124.961 74.8691 130.018 69.8671C135.926 64.0227 141.825 58.1715 147.794 52.3915C149.077 51.1479 150.614 50.1535 152.096 49.1345C152.607 48.7825 153.304 48.703 154.634 48.2606C152.385 53.5749 147.976 56.3773 145.427 60.3178C146.127 61.041 146.757 61.6902 147.518 62.475C149.239 61.7052 151.196 60.7122 152.757 58.9467C153.804 57.7634 154.138 57.9236 156.031 59.2508C154.364 60.6191 152.741 61.8765 151.206 63.2338C149.728 64.5391 148.34 65.9457 147.225 67.7372C148.943 66.5634 150.611 65.3088 152.392 64.2391C154.109 63.205 155.942 62.3599 157.724 61.4327C157.899 61.6244 158.073 61.8148 158.248 62.0066C157.566 62.9777 156.886 63.9488 156.256 64.8486C157.883 64.8212 159.55 64.7938 161.351 64.7637C161.805 67.3948 157.903 67.4195 158.52 69.8972C157.265 71.4258 156.009 72.9543 154.705 74.5417C155.135 74.8116 155.52 75.0526 156.082 75.4074C146.584 85.0388 137.146 94.6101 127.484 104.409C138.092 112.112 147.627 120.41 157.362 129.027C156.039 129.645 155.201 130.036 154.597 130.319C151.711 130.224 150.514 126.169 146.932 127.878C147.899 128.752 148.754 129.545 149.633 130.309C150.358 130.936 151.362 131.298 150.963 132.679C150.852 133.062 151.588 133.817 152.081 134.226C153.544 135.44 155.087 136.557 156.583 137.735C157.023 138.082 157.402 138.502 158.183 139.245C155.823 139.501 154.848 137.715 153.048 137.292C150.834 139.843 148.817 137.378 146.123 136.316C147.981 138.808 150.503 139.96 151.54 142.633C148.725 143.855 146.338 144.656 143.734 142.278C141.544 140.28 138.94 138.735 136.519 136.989C136.39 137.145 136.261 137.301 136.132 137.457C140.481 140.973 144.828 144.489 149.557 148.313C147.724 148.76 146.917 147.986 146.065 147.419C135.464 140.364 125.282 132.739 115.382 124.733C114.305 123.863 113.151 123.091 111.832 122.127C110.711 123.326 109.683 124.374 108.713 125.477C104.347 130.439 99.9377 135.366 95.6588 140.402C91.4553 145.352 87.445 150.466 83.2374 155.414C81.4321 157.538 79.442 159.532 77.3533 161.377C75.9685 162.6 74.2017 163.263 71.6555 163.269C72.5389 161.652 73.1416 160.548 73.8387 159.269C73.2566 158.847 72.6512 158.41 72.0417 157.971C72.5403 156.478 73.0416 154.975 73.6757 153.073C72.5677 153.358 71.7582 153.566 70.9747 153.767C69.6119 153.533 68.897 152.204 68.7792 149.74C70.7967 148.915 70.972 148.743 71.7281 146.609C70.3365 147.612 69.3791 148.51 68.8463 149.824Z" fill="#D63037"/>
</svg>
